<svg width="32" height="39" viewBox="0 0 32 39" fill="none" xmlns="http://www.w3.org/2000/svg">
<path d="M16 8.66666C13.3629 8.66666 10.7851 9.44865 8.59242 10.9137C6.39977 12.3788 4.6908 14.4612 3.68163 16.8976C2.67246 19.3339 2.40842 22.0148 2.92289 24.6012C3.43736 27.1876 4.70724 29.5634 6.57194 31.4281C8.43664 33.2928 10.8124 34.5627 13.3988 35.0771C15.9852 35.5916 18.6661 35.3276 21.1025 34.3184C23.5388 33.3092 25.6212 31.6003 27.0863 29.4076C28.5514 27.2149 29.3334 24.6371 29.3334 22C29.3334 20.249 28.9885 18.5152 28.3184 16.8976C27.6484 15.2799 26.6662 13.81 25.4281 12.5719C24.19 11.3338 22.7201 10.3517 21.1025 9.6816C19.4848 9.01154 17.751 8.66666 16 8.66666ZM16 32.6667C13.1711 32.6667 10.4579 31.5429 8.45755 29.5425C6.45717 27.5421 5.33336 24.829 5.33336 22C5.33041 19.6311 6.12405 17.3301 7.58669 15.4667L22.5334 30.4133C20.67 31.876 18.3689 32.6696 16 32.6667ZM24.4134 28.5333L9.46669 13.5867C11.3301 12.124 13.6312 11.3304 16 11.3333C18.829 11.3333 21.5421 12.4571 23.5425 14.4575C25.5429 16.4579 26.6667 19.171 26.6667 22C26.6696 24.3689 25.876 26.6699 24.4134 28.5333Z" fill="#FFE8E8"/>
</svg>
