<svg width="32" height="39" viewBox="0 0 32 39" fill="none" xmlns="http://www.w3.org/2000/svg">
<path d="M19.6267 17.72L13.9067 23.4533L11.7067 21.2533C11.5872 21.1138 11.4401 21.0004 11.2747 20.9204C11.1092 20.8403 10.9291 20.7954 10.7454 20.7883C10.5618 20.7812 10.3787 20.8121 10.2076 20.8792C10.0365 20.9462 9.8811 21.0479 9.75116 21.1778C9.62122 21.3077 9.51954 21.4631 9.45251 21.6342C9.38548 21.8053 9.35454 21.9884 9.36163 22.1721C9.36872 22.3557 9.41369 22.5359 9.49373 22.7013C9.57376 22.8667 9.68712 23.0138 9.82669 23.1333L12.96 26.28C13.0846 26.4036 13.2324 26.5013 13.3948 26.5677C13.5573 26.634 13.7312 26.6677 13.9067 26.6667C14.2565 26.6652 14.5917 26.5263 14.84 26.28L21.5067 19.6133C21.6317 19.4894 21.7309 19.3419 21.7985 19.1794C21.8662 19.017 21.9011 18.8427 21.9011 18.6667C21.9011 18.4907 21.8662 18.3164 21.7985 18.1539C21.7309 17.9914 21.6317 17.844 21.5067 17.72C21.2569 17.4717 20.9189 17.3323 20.5667 17.3323C20.2144 17.3323 19.8765 17.4717 19.6267 17.72ZM16 8.66667C13.3629 8.66667 10.7851 9.44865 8.59242 10.9137C6.39977 12.3788 4.6908 14.4612 3.68163 16.8976C2.67246 19.3339 2.40842 22.0148 2.92289 24.6012C3.43736 27.1876 4.70724 29.5634 6.57194 31.4281C8.43664 33.2928 10.8124 34.5627 13.3988 35.0771C15.9852 35.5916 18.6661 35.3276 21.1025 34.3184C23.5388 33.3092 25.6212 31.6003 27.0863 29.4076C28.5514 27.2149 29.3334 24.6371 29.3334 22C29.3334 20.249 28.9885 18.5152 28.3184 16.8976C27.6484 15.2799 26.6662 13.81 25.4281 12.5719C24.19 11.3338 22.7201 10.3517 21.1025 9.68161C19.4848 9.01154 17.751 8.66667 16 8.66667ZM16 32.6667C13.8904 32.6667 11.8281 32.0411 10.0739 30.869C8.31982 29.6969 6.95265 28.031 6.14531 26.082C5.33798 24.1329 5.12674 21.9882 5.53832 19.919C5.94989 17.8499 6.96579 15.9493 8.45755 14.4575C9.94931 12.9658 11.8499 11.9499 13.9191 11.5383C15.9882 11.1267 18.1329 11.338 20.082 12.1453C22.0311 12.9526 23.697 14.3198 24.869 16.0739C26.0411 17.828 26.6667 19.8903 26.6667 22C26.6667 24.829 25.5429 27.5421 23.5425 29.5425C21.5421 31.5429 18.829 32.6667 16 32.6667Z" fill="#0F552C"/>
</svg>
