<svg width="40" height="46" viewBox="0 0 40 46" fill="none" xmlns="http://www.w3.org/2000/svg">
<g filter="url(#filter0_dd_303_141)">
<path d="M20 20.6667C19.6464 20.6667 19.3073 20.8071 19.0572 21.0572C18.8072 21.3072 18.6667 21.6464 18.6667 22V27.3333C18.6667 27.687 18.8072 28.0261 19.0572 28.2761C19.3073 28.5262 19.6464 28.6667 20 28.6667C20.3536 28.6667 20.6928 28.5262 20.9428 28.2761C21.1929 28.0261 21.3334 27.687 21.3334 27.3333V22C21.3334 21.6464 21.1929 21.3072 20.9428 21.0572C20.6928 20.8071 20.3536 20.6667 20 20.6667ZM20.5067 15.44C20.1821 15.3066 19.818 15.3066 19.4934 15.44C19.3297 15.5035 19.1802 15.5986 19.0534 15.72C18.9356 15.8496 18.8409 15.9984 18.7734 16.16C18.6987 16.3182 18.6622 16.4918 18.6667 16.6667C18.6657 16.8421 18.6993 17.0161 18.7657 17.1785C18.832 17.341 18.9298 17.4888 19.0534 17.6133C19.183 17.7311 19.3318 17.8258 19.4934 17.8933C19.6954 17.9763 19.9146 18.0084 20.132 17.9868C20.3493 17.9652 20.5579 17.8906 20.7396 17.7694C20.9213 17.6483 21.0705 17.4844 21.174 17.2921C21.2776 17.0998 21.3323 16.885 21.3334 16.6667C21.3284 16.3136 21.1903 15.9755 20.9467 15.72C20.8199 15.5986 20.6704 15.5035 20.5067 15.44ZM20 8.66667C17.3629 8.66667 14.7851 9.44866 12.5924 10.9137C10.3998 12.3788 8.6908 14.4612 7.68163 16.8976C6.67246 19.3339 6.40842 22.0148 6.92289 24.6012C7.43736 27.1876 8.70724 29.5634 10.5719 31.4281C12.4366 33.2928 14.8124 34.5627 17.3988 35.0771C19.9852 35.5916 22.6661 35.3276 25.1025 34.3184C27.5388 33.3092 29.6212 31.6003 31.0863 29.4076C32.5514 27.215 33.3334 24.6371 33.3334 22C33.3334 20.249 32.9885 18.5152 32.3184 16.8976C31.6484 15.2799 30.6662 13.81 29.4281 12.5719C28.19 11.3338 26.7201 10.3517 25.1025 9.68161C23.4848 9.01155 21.751 8.66667 20 8.66667ZM20 32.6667C17.8904 32.6667 15.8281 32.0411 14.0739 30.869C12.3198 29.6969 10.9526 28.031 10.1453 26.082C9.33798 24.1329 9.12674 21.9882 9.53832 19.919C9.94989 17.8499 10.9658 15.9493 12.4576 14.4575C13.9493 12.9658 15.8499 11.9499 17.9191 11.5383C19.9882 11.1267 22.1329 11.338 24.082 12.1453C26.0311 12.9526 27.697 14.3198 28.869 16.0739C30.0411 17.828 30.6667 19.8903 30.6667 22C30.6667 24.829 29.5429 27.5421 27.5425 29.5425C25.5421 31.5429 22.829 32.6667 20 32.6667Z" fill="#6E5404"/>
</g>
<defs>
<filter id="filter0_dd_303_141" x="0" y="0" width="40" height="47" filterUnits="userSpaceOnUse" color-interpolation-filters="sRGB">
<feFlood flood-opacity="0" result="BackgroundImageFix"/>
<feColorMatrix in="SourceAlpha" type="matrix" values="0 0 0 0 0 0 0 0 0 0 0 0 0 0 0 0 0 0 127 0" result="hardAlpha"/>
<feOffset dy="4"/>
<feGaussianBlur stdDeviation="2"/>
<feComposite in2="hardAlpha" operator="out"/>
<feColorMatrix type="matrix" values="0 0 0 0 0 0 0 0 0 0 0 0 0 0 0 0 0 0 0.25 0"/>
<feBlend mode="normal" in2="BackgroundImageFix" result="effect1_dropShadow_303_141"/>
<feColorMatrix in="SourceAlpha" type="matrix" values="0 0 0 0 0 0 0 0 0 0 0 0 0 0 0 0 0 0 127 0" result="hardAlpha"/>
<feOffset dy="4"/>
<feGaussianBlur stdDeviation="2"/>
<feComposite in2="hardAlpha" operator="out"/>
<feColorMatrix type="matrix" values="0 0 0 0 0 0 0 0 0 0 0 0 0 0 0 0 0 0 0.25 0"/>
<feBlend mode="normal" in2="effect1_dropShadow_303_141" result="effect2_dropShadow_303_141"/>
<feBlend mode="normal" in="SourceGraphic" in2="effect2_dropShadow_303_141" result="shape"/>
</filter>
</defs>
</svg>
